<svg version="1.1" id="Layer_1" xmlns="http://www.w3.org/2000/svg" xmlns:xlink="http://www.w3.org/1999/xlink" x="0px" y="0px"
	 width="100%" viewBox="0 0 1024 1024" enable-background="new 0 0 1024 1024" xml:space="preserve">
<path fill="#F4F5F8" opacity="1.000000" stroke="none" 
	d="
M582.000000,1025.000000 
	C388.000000,1025.000000 194.500000,1025.000000 1.000000,1025.000000 
	C1.000000,683.666687 1.000000,342.333344 1.000000,1.000000 
	C342.333344,1.000000 683.666687,1.000000 1025.000000,1.000000 
	C1025.000000,342.333344 1025.000000,683.666687 1025.000000,1025.000000 
	C877.500000,1025.000000 730.000000,1025.000000 582.000000,1025.000000 
M833.711426,757.034485 
	C861.349915,739.977661 875.617981,714.991821 875.674988,682.735962 
	C875.927856,539.740662 875.795532,396.744659 875.756958,253.748932 
	C875.755066,246.593536 875.632202,239.413132 875.044434,232.287384 
	C872.844849,205.619293 862.809204,182.292435 844.161499,162.999420 
	C820.901184,138.934174 791.766541,129.043381 758.916138,129.028458 
	C610.253906,128.960968 461.591522,128.918137 312.929596,129.131134 
	C299.003815,129.151077 284.893799,129.924896 271.192169,132.250717 
	C233.765137,138.603928 200.667984,153.966156 174.946411,182.801773 
	C161.806122,197.532959 152.419662,214.431824 150.949036,234.423370 
	C149.815018,249.838974 150.164536,265.376953 150.162827,280.860565 
	C150.143478,456.188629 150.162048,631.516663 150.283936,806.844666 
	C150.289001,814.133118 150.823303,821.525818 152.107925,828.691223 
	C158.633820,865.091003 191.880920,894.959106 228.460526,896.780640 
	C244.916534,897.600159 261.448364,896.897156 278.868195,896.995178 
	C406.468781,896.996765 534.069336,896.999634 661.669922,896.992371 
	C664.829163,896.992188 667.988342,896.878906 672.059570,896.900513 
	C683.359131,896.933716 694.658691,897.008850 705.958191,896.988708 
	C717.921753,896.967346 729.330933,894.333252 740.212463,889.404053 
	C760.171631,880.362976 774.101135,865.319763 784.283447,845.744995 
	C805.731812,835.789246 819.894348,819.274414 828.071960,797.298279 
	C832.920776,784.267883 833.393188,770.739075 833.711426,757.034485 
z"/>
<path fill="#D99E82" opacity="1.000000" stroke="none" 
	d="
M671.147583,896.818420 
	C667.988342,896.878906 664.829163,896.992188 661.669922,896.992371 
	C534.069336,896.999634 406.468781,896.996765 278.442871,896.480835 
	C278.028320,893.633667 278.048492,891.300903 278.048492,888.968140 
	C278.050262,694.810547 278.050293,500.652954 278.051575,306.495361 
	C278.051636,299.960144 278.056885,299.953888 284.490936,299.953857 
	C412.818268,299.952850 541.145630,299.940948 669.472961,299.997803 
	C674.769287,300.000153 680.132263,300.233734 685.349854,301.071381 
	C706.171021,304.414093 723.130310,314.110382 735.017090,331.962372 
	C744.603760,346.359833 747.849304,362.579742 747.867065,379.394501 
	C748.014160,518.554504 747.964600,657.714783 747.912292,796.874939 
	C747.909424,804.508728 747.742371,812.181335 746.983643,819.769043 
	C743.958557,850.019226 728.683472,872.225098 702.231201,886.963379 
	C692.522644,892.372620 681.988647,895.048096 671.147583,896.818420 
M412.506958,427.882385 
	C410.674194,427.883179 408.837555,427.962708 407.009247,427.872833 
	C383.542572,426.719635 362.926453,447.481415 363.791138,471.101929 
	C364.302856,485.079651 364.190277,499.099518 363.816864,513.085938 
	C363.233734,534.928589 381.596985,555.658020 405.798492,555.764526 
	C477.278931,556.079163 548.762512,556.084229 620.242859,555.761230 
	C644.419678,555.652039 662.781128,534.909119 662.185669,513.045227 
	C661.800232,498.892670 662.144653,484.720917 662.088501,470.558075 
	C662.077332,467.741394 662.040466,464.864471 661.492310,462.119812 
	C657.077148,440.011993 637.202393,427.635925 618.951538,427.735168 
	C550.471008,428.107605 481.987213,427.882996 412.506958,427.882385 
z"/>
<path fill="#C16950" opacity="1.000000" stroke="none" 
	d="
M671.603577,896.859497 
	C681.988647,895.048096 692.522644,892.372620 702.231201,886.963379 
	C728.683472,872.225098 743.958557,850.019226 746.983643,819.769043 
	C747.742371,812.181335 747.909424,804.508728 747.912292,796.874939 
	C747.964600,657.714783 748.014160,518.554504 747.867065,379.394501 
	C747.849304,362.579742 744.603760,346.359833 735.017090,331.962372 
	C723.130310,314.110382 706.171021,304.414093 685.349854,301.071381 
	C680.132263,300.233734 674.769287,300.000153 669.472961,299.997803 
	C541.145630,299.940948 412.818268,299.952850 284.490936,299.953857 
	C278.056885,299.953888 278.051636,299.960144 278.051575,306.495361 
	C278.050293,500.652954 278.050262,694.810547 278.048492,888.968140 
	C278.048492,891.300903 278.028320,893.633667 277.981659,896.425720 
	C261.448364,896.897156 244.916534,897.600159 228.460526,896.780640 
	C191.880920,894.959106 158.633820,865.091003 152.107925,828.691223 
	C150.823303,821.525818 150.289001,814.133118 150.283936,806.844666 
	C150.162048,631.516663 150.143478,456.188629 150.162827,280.860565 
	C150.164536,265.376953 149.815018,249.838974 150.949036,234.423370 
	C152.419662,214.431824 161.806122,197.532959 174.946411,182.801773 
	C200.667984,153.966156 233.765137,138.603928 271.192169,132.250717 
	C284.893799,129.924896 299.003815,129.151077 312.929596,129.131134 
	C461.591522,128.918137 610.253906,128.960968 758.916138,129.028458 
	C791.766541,129.043381 820.901184,138.934174 844.161499,162.999420 
	C862.809204,182.292435 872.844849,205.619293 875.044434,232.287384 
	C875.632202,239.413132 875.755066,246.593536 875.756958,253.748932 
	C875.795532,396.744659 875.927856,539.740662 875.674988,682.735962 
	C875.617981,714.991821 861.349915,739.977661 833.355957,756.584351 
	C833.000366,591.184265 833.012939,426.234344 832.948364,261.284454 
	C832.945984,255.310089 832.683228,249.252121 831.695679,243.375305 
	C824.631592,201.335571 789.612732,171.878769 746.979736,171.877762 
	C621.017944,171.874771 495.056122,171.824356 369.094391,171.924057 
	C345.951935,171.942383 322.794250,172.173965 299.673462,173.074371 
	C285.021271,173.644989 270.490601,176.176559 257.100128,182.644272 
	C243.404678,189.259262 231.653931,197.966415 227.457672,214.176743 
	C227.041519,215.621933 226.953323,216.789291 226.727631,217.929413 
	C223.182327,235.837555 230.933762,258.021942 259.304321,257.004700 
	C260.469269,256.962921 261.637054,256.999451 262.803497,256.999451 
	C409.610565,256.999481 556.417603,256.997223 703.224670,257.000946 
	C746.630554,257.002045 780.771912,285.160217 789.182129,328.327332 
	C789.481873,334.386688 790.109802,340.022339 790.112000,345.658264 
	C790.172302,498.193542 790.105774,650.728943 790.276245,803.264038 
	C790.292603,817.911865 789.098999,832.148499 783.518188,845.801514 
	C774.101135,865.319763 760.171631,880.362976 740.212463,889.404053 
	C729.330933,894.333252 717.921753,896.967346 705.958191,896.988708 
	C694.658691,897.008850 683.359131,896.933716 671.603577,896.859497 
z"/>
<path fill="#CCD6DC" opacity="1.000000" stroke="none" 
	d="
M227.721649,213.886230 
	C231.653931,197.966415 243.404678,189.259262 257.100128,182.644272 
	C270.490601,176.176559 285.021271,173.644989 299.673462,173.074371 
	C322.794250,172.173965 345.951935,171.942383 369.094391,171.924057 
	C495.056122,171.824356 621.017944,171.874771 746.979736,171.877762 
	C789.612732,171.878769 824.631592,201.335571 831.695679,243.375305 
	C832.683228,249.252121 832.945984,255.310089 832.948364,261.284454 
	C833.012939,426.234344 833.000366,591.184265 833.002502,756.610229 
	C833.393188,770.739075 832.920776,784.267883 828.071960,797.298279 
	C819.894348,819.274414 805.731812,835.789246 783.900818,845.773254 
	C789.098999,832.148499 790.292603,817.911865 790.276245,803.264038 
	C790.105774,650.728943 790.172302,498.193542 790.112000,345.658264 
	C790.109802,340.022339 789.481873,334.386688 789.428406,328.006775 
	C789.798828,308.290375 789.887878,289.318054 789.965515,270.345734 
	C789.967529,269.852020 789.867310,269.353943 789.779114,268.864349 
	C783.768311,235.484451 757.292297,213.987305 723.336670,213.993652 
	C560.628601,214.024109 397.920502,214.007874 235.212433,214.002304 
	C232.715500,214.002213 230.218582,213.926605 227.721649,213.886230 
z"/>
<path fill="#E1E8ED" opacity="1.000000" stroke="none" 
	d="
M413.005798,427.882263 
	C481.987213,427.882996 550.471008,428.107605 618.951538,427.735168 
	C637.202393,427.635925 657.077148,440.011993 661.492310,462.119812 
	C662.040466,464.864471 662.077332,467.741394 662.088501,470.558075 
	C662.144653,484.720917 661.800232,498.892670 662.185669,513.045227 
	C662.781128,534.909119 644.419678,555.652039 620.242859,555.761230 
	C548.762512,556.084229 477.278931,556.079163 405.798492,555.764526 
	C381.596985,555.658020 363.233734,534.928589 363.816864,513.085938 
	C364.190277,499.099518 364.302856,485.079651 363.791138,471.101929 
	C362.926453,447.481415 383.542572,426.719635 407.009247,427.872833 
	C408.837555,427.962708 410.674194,427.883179 413.005798,427.882263 
z"/>
<path fill="#E1E8ED" opacity="1.000000" stroke="none" 
	d="
M227.457672,214.176743 
	C230.218582,213.926605 232.715500,214.002213 235.212433,214.002304 
	C397.920502,214.007874 560.628601,214.024109 723.336670,213.993652 
	C757.292297,213.987305 783.768311,235.484451 789.779114,268.864349 
	C789.867310,269.353943 789.967529,269.852020 789.965515,270.345734 
	C789.887878,289.318054 789.798828,308.290375 789.464966,327.583191 
	C780.771912,285.160217 746.630554,257.002045 703.224670,257.000946 
	C556.417603,256.997223 409.610565,256.999481 262.803497,256.999451 
	C261.637054,256.999451 260.469269,256.962921 259.304321,257.004700 
	C230.933762,258.021942 223.182327,235.837555 226.727631,217.929413 
	C226.953323,216.789291 227.041519,215.621933 227.457672,214.176743 
z"/>
</svg>